<svg xmlns="http://www.w3.org/2000/svg" xmlns:xlink="http://www.w3.org/1999/xlink" contentStyleType="text/css" height="571px" preserveAspectRatio="none" style="width:1123px;height:571px;background:#FFFFFF;" version="1.1" viewBox="0 0 1123 571" width="1123px" zoomAndPan="magnify"><defs/><g><!--class Atleta--><g id="elem_Atleta"><rect codeLine="3" fill="#F1F1F1" height="64.2969" id="Atleta" rx="2.5" ry="2.5" style="stroke:#181818;stroke-width:0.5;" width="154.8574" x="374.43" y="181.45"/><ellipse cx="426.7899" cy="197.45" fill="#B4A7E5" rx="11" ry="11" style="stroke:#181818;stroke-width:1.0;"/><path d="M422.7117,193.2156 L422.7117,191.0594 L430.1024,191.0594 L430.1024,193.2156 L427.6336,193.2156 L427.6336,201.2938 L430.1024,201.2938 L430.1024,203.45 L422.7117,203.45 L422.7117,201.2938 L425.1805,201.2938 L425.1805,193.2156 L422.7117,193.2156 Z " fill="#000000"/><text fill="#000000" font-family="sans-serif" font-size="14" font-style="italic" lengthAdjust="spacing" textLength="41.6377" x="447.2899" y="202.2967">Atleta</text><line style="stroke:#181818;stroke-width:0.5;" x1="375.43" x2="528.2874" y1="213.45" y2="213.45"/><line style="stroke:#181818;stroke-width:0.5;" x1="375.43" x2="528.2874" y1="221.45" y2="221.45"/><ellipse cx="385.43" cy="235.0984" fill="#84BE84" rx="3" ry="3" style="stroke:#038048;stroke-width:1.0;"/><text fill="#000000" font-family="sans-serif" font-size="14" lengthAdjust="spacing" textLength="128.8574" x="394.43" y="238.4451">competir() : String</text></g><!--class Pessoa--><g id="elem_Pessoa"><rect codeLine="7" fill="#F1F1F1" height="145.7813" id="Pessoa" rx="2.5" ry="2.5" style="stroke:#181818;stroke-width:0.5;" width="291.3711" x="306.17" y="282.71"/><ellipse cx="423.2115" cy="298.71" fill="#A9DCDF" rx="11" ry="11" style="stroke:#181818;stroke-width:1.0;"/><path d="M423.3209,294.0538 L422.1646,299.1319 L424.4928,299.1319 L423.3209,294.0538 Z M421.8365,291.8194 L424.8209,291.8194 L428.1803,304.21 L425.7271,304.21 L424.9615,301.1475 L421.6803,301.1475 L420.9303,304.21 L418.4928,304.21 L421.8365,291.8194 Z " fill="#000000"/><text fill="#000000" font-family="sans-serif" font-size="14" font-style="italic" lengthAdjust="spacing" textLength="48.7881" x="443.7115" y="303.5567">Pessoa</text><line style="stroke:#181818;stroke-width:0.5;" x1="307.17" x2="596.5411" y1="314.71" y2="314.71"/><rect fill="none" height="6" style="stroke:#C82930;stroke-width:1.0;" width="6" x="314.17" y="325.3584"/><text fill="#000000" font-family="sans-serif" font-size="14" lengthAdjust="spacing" textLength="95.0879" x="326.17" y="331.7051">nome : String</text><rect fill="none" height="6" style="stroke:#C82930;stroke-width:1.0;" width="6" x="314.17" y="341.6553"/><text fill="#000000" font-family="sans-serif" font-size="14" lengthAdjust="spacing" textLength="70.7246" x="326.17" y="348.002">idade : int</text><line style="stroke:#181818;stroke-width:0.5;" x1="307.17" x2="596.5411" y1="355.3038" y2="355.3038"/><ellipse cx="317.17" cy="368.9522" fill="#84BE84" rx="3" ry="3" style="stroke:#038048;stroke-width:1.0;"/><text fill="#000000" font-family="sans-serif" font-size="14" lengthAdjust="spacing" textLength="265.3711" x="326.17" y="372.2989">__construct(nome : String, idade : int)</text><ellipse cx="317.17" cy="385.2491" fill="#84BE84" rx="3" ry="3" style="stroke:#038048;stroke-width:1.0;"/><text fill="#000000" font-family="sans-serif" font-size="14" lengthAdjust="spacing" textLength="130.6006" x="326.17" y="388.5957">getNome() : String</text><ellipse cx="317.17" cy="401.5459" fill="#84BE84" rx="3" ry="3" style="stroke:#038048;stroke-width:1.0;"/><text fill="#000000" font-family="sans-serif" font-size="14" lengthAdjust="spacing" textLength="104.877" x="326.17" y="404.8926">getIdade() : int</text><ellipse cx="317.17" cy="417.8428" fill="#84BE84" rx="3" ry="3" style="stroke:#038048;stroke-width:1.0;"/><text fill="#000000" font-family="sans-serif" font-size="14" lengthAdjust="spacing" textLength="135.8369" x="326.17" y="421.1895">descrever() : String</text></g><!--class Corredor--><g id="elem_Corredor"><rect codeLine="16" fill="#F1F1F1" height="113.1875" id="Corredor" rx="2.5" ry="2.5" style="stroke:#181818;stroke-width:0.5;" width="451.9883" x="660.94" y="303"/><ellipse cx="851.8472" cy="319" fill="#ADD1B2" rx="11" ry="11" style="stroke:#181818;stroke-width:1.0;"/><path d="M854.816,324.6406 Q854.2379,324.9375 853.5972,325.0781 Q852.9566,325.2344 852.2535,325.2344 Q849.7535,325.2344 848.4254,323.5938 Q847.1129,321.9375 847.1129,318.8125 Q847.1129,315.6875 848.4254,314.0313 Q849.7535,312.375 852.2535,312.375 Q852.9566,312.375 853.5972,312.5313 Q854.2535,312.6875 854.816,312.9844 L854.816,315.7031 Q854.191,315.125 853.5972,314.8594 Q853.0035,314.5781 852.3785,314.5781 Q851.0347,314.5781 850.3472,315.6563 Q849.6597,316.7188 849.6597,318.8125 Q849.6597,320.9063 850.3472,321.9844 Q851.0347,323.0469 852.3785,323.0469 Q853.0035,323.0469 853.5972,322.7813 Q854.191,322.5 854.816,321.9219 L854.816,324.6406 Z " fill="#000000"/><text fill="#000000" font-family="sans-serif" font-size="14" lengthAdjust="spacing" textLength="61.6738" x="872.3472" y="323.8467">Corredor</text><line style="stroke:#181818;stroke-width:0.5;" x1="661.94" x2="1111.9283" y1="335" y2="335"/><rect fill="none" height="6" style="stroke:#C82930;stroke-width:1.0;" width="6" x="668.94" y="345.6484"/><text fill="#000000" font-family="sans-serif" font-size="14" lengthAdjust="spacing" textLength="151.7168" x="680.94" y="351.9951">especialidade : String</text><line style="stroke:#181818;stroke-width:0.5;" x1="661.94" x2="1111.9283" y1="359.2969" y2="359.2969"/><ellipse cx="671.94" cy="372.9453" fill="#84BE84" rx="3" ry="3" style="stroke:#038048;stroke-width:1.0;"/><text fill="#000000" font-family="sans-serif" font-size="14" lengthAdjust="spacing" textLength="425.9883" x="680.94" y="376.292">__construct(nome : String, idade : int, especialidade : String)</text><ellipse cx="671.94" cy="389.2422" fill="#84BE84" rx="3" ry="3" style="stroke:#038048;stroke-width:1.0;"/><text fill="#000000" font-family="sans-serif" font-size="14" lengthAdjust="spacing" textLength="128.8574" x="680.94" y="392.5889">competir() : String</text><ellipse cx="671.94" cy="405.5391" fill="#84BE84" rx="3" ry="3" style="stroke:#038048;stroke-width:1.0;"/><text fill="#000000" font-family="sans-serif" font-size="14" lengthAdjust="spacing" textLength="135.8369" x="680.94" y="408.8857">descrever() : String</text></g><!--class Nadador--><g id="elem_Nadador"><rect codeLine="23" fill="#F1F1F1" height="113.1875" id="Nadador" rx="2.5" ry="2.5" style="stroke:#181818;stroke-width:0.5;" width="393.4111" x="690.23" y="451"/><ellipse cx="852.8228" cy="467" fill="#ADD1B2" rx="11" ry="11" style="stroke:#181818;stroke-width:1.0;"/><path d="M855.7915,472.6406 Q855.2134,472.9375 854.5728,473.0781 Q853.9321,473.2344 853.229,473.2344 Q850.729,473.2344 849.4009,471.5938 Q848.0884,469.9375 848.0884,466.8125 Q848.0884,463.6875 849.4009,462.0313 Q850.729,460.375 853.229,460.375 Q853.9321,460.375 854.5728,460.5313 Q855.229,460.6875 855.7915,460.9844 L855.7915,463.7031 Q855.1665,463.125 854.5728,462.8594 Q853.979,462.5781 853.354,462.5781 Q852.0103,462.5781 851.3228,463.6563 Q850.6353,464.7188 850.6353,466.8125 Q850.6353,468.9063 851.3228,469.9844 Q852.0103,471.0469 853.354,471.0469 Q853.979,471.0469 854.5728,470.7813 Q855.1665,470.5 855.7915,469.9219 L855.7915,472.6406 Z " fill="#000000"/><text fill="#000000" font-family="sans-serif" font-size="14" lengthAdjust="spacing" textLength="59.7256" x="873.3228" y="471.8467">Nadador</text><line style="stroke:#181818;stroke-width:0.5;" x1="691.23" x2="1082.6411" y1="483" y2="483"/><rect fill="none" height="6" style="stroke:#C82930;stroke-width:1.0;" width="6" x="698.23" y="493.6484"/><text fill="#000000" font-family="sans-serif" font-size="14" lengthAdjust="spacing" textLength="93.1396" x="710.23" y="499.9951">estilo : String</text><line style="stroke:#181818;stroke-width:0.5;" x1="691.23" x2="1082.6411" y1="507.2969" y2="507.2969"/><ellipse cx="701.23" cy="520.9453" fill="#84BE84" rx="3" ry="3" style="stroke:#038048;stroke-width:1.0;"/><text fill="#000000" font-family="sans-serif" font-size="14" lengthAdjust="spacing" textLength="367.4111" x="710.23" y="524.292">__construct(nome : String, idade : int, estilo : String)</text><ellipse cx="701.23" cy="537.2422" fill="#84BE84" rx="3" ry="3" style="stroke:#038048;stroke-width:1.0;"/><text fill="#000000" font-family="sans-serif" font-size="14" lengthAdjust="spacing" textLength="128.8574" x="710.23" y="540.5889">competir() : String</text><ellipse cx="701.23" cy="553.5391" fill="#84BE84" rx="3" ry="3" style="stroke:#038048;stroke-width:1.0;"/><text fill="#000000" font-family="sans-serif" font-size="14" lengthAdjust="spacing" textLength="135.8369" x="710.23" y="556.8857">descrever() : String</text></g><!--class Ciclista--><g id="elem_Ciclista"><rect codeLine="30" fill="#F1F1F1" height="113.1875" id="Ciclista" rx="2.5" ry="2.5" style="stroke:#181818;stroke-width:0.5;" width="441.8506" x="666.01" y="7"/><ellipse cx="857.4333" cy="23" fill="#ADD1B2" rx="11" ry="11" style="stroke:#181818;stroke-width:1.0;"/><path d="M860.4021,28.6406 Q859.824,28.9375 859.1833,29.0781 Q858.5427,29.2344 857.8396,29.2344 Q855.3396,29.2344 854.0115,27.5938 Q852.699,25.9375 852.699,22.8125 Q852.699,19.6875 854.0115,18.0313 Q855.3396,16.375 857.8396,16.375 Q858.5427,16.375 859.1833,16.5313 Q859.8396,16.6875 860.4021,16.9844 L860.4021,19.7031 Q859.7771,19.125 859.1833,18.8594 Q858.5896,18.5781 857.9646,18.5781 Q856.6208,18.5781 855.9333,19.6563 Q855.2458,20.7188 855.2458,22.8125 Q855.2458,24.9063 855.9333,25.9844 Q856.6208,27.0469 857.9646,27.0469 Q858.5896,27.0469 859.1833,26.7813 Q859.7771,26.5 860.4021,25.9219 L860.4021,28.6406 Z " fill="#000000"/><text fill="#000000" font-family="sans-serif" font-size="14" lengthAdjust="spacing" textLength="50.5039" x="877.9333" y="27.8467">Ciclista</text><line style="stroke:#181818;stroke-width:0.5;" x1="667.01" x2="1106.8606" y1="39" y2="39"/><rect fill="none" height="6" style="stroke:#C82930;stroke-width:1.0;" width="6" x="674.01" y="49.6484"/><text fill="#000000" font-family="sans-serif" font-size="14" lengthAdjust="spacing" textLength="141.5791" x="686.01" y="55.9951">tipoBicicleta : String</text><line style="stroke:#181818;stroke-width:0.5;" x1="667.01" x2="1106.8606" y1="63.2969" y2="63.2969"/><ellipse cx="677.01" cy="76.9453" fill="#84BE84" rx="3" ry="3" style="stroke:#038048;stroke-width:1.0;"/><text fill="#000000" font-family="sans-serif" font-size="14" lengthAdjust="spacing" textLength="415.8506" x="686.01" y="80.292">__construct(nome : String, idade : int, tipoBicicleta : String)</text><ellipse cx="677.01" cy="93.2422" fill="#84BE84" rx="3" ry="3" style="stroke:#038048;stroke-width:1.0;"/><text fill="#000000" font-family="sans-serif" font-size="14" lengthAdjust="spacing" textLength="128.8574" x="686.01" y="96.5889">competir() : String</text><ellipse cx="677.01" cy="109.5391" fill="#84BE84" rx="3" ry="3" style="stroke:#038048;stroke-width:1.0;"/><text fill="#000000" font-family="sans-serif" font-size="14" lengthAdjust="spacing" textLength="135.8369" x="686.01" y="112.8857">descrever() : String</text></g><!--class Maratonista--><g id="elem_Maratonista"><rect codeLine="37" fill="#F1F1F1" height="113.1875" id="Maratonista" rx="2.5" ry="2.5" style="stroke:#181818;stroke-width:0.5;" width="458.7832" x="657.54" y="155"/><ellipse cx="841.0952" cy="171" fill="#ADD1B2" rx="11" ry="11" style="stroke:#181818;stroke-width:1.0;"/><path d="M844.0639,176.6406 Q843.4858,176.9375 842.8452,177.0781 Q842.2046,177.2344 841.5014,177.2344 Q839.0014,177.2344 837.6733,175.5938 Q836.3608,173.9375 836.3608,170.8125 Q836.3608,167.6875 837.6733,166.0313 Q839.0014,164.375 841.5014,164.375 Q842.2046,164.375 842.8452,164.5313 Q843.5014,164.6875 844.0639,164.9844 L844.0639,167.7031 Q843.4389,167.125 842.8452,166.8594 Q842.2514,166.5781 841.6264,166.5781 Q840.2827,166.5781 839.5952,167.6563 Q838.9077,168.7188 838.9077,170.8125 Q838.9077,172.9063 839.5952,173.9844 Q840.2827,175.0469 841.6264,175.0469 Q842.2514,175.0469 842.8452,174.7813 Q843.4389,174.5 844.0639,173.9219 L844.0639,176.6406 Z " fill="#000000"/><text fill="#000000" font-family="sans-serif" font-size="14" lengthAdjust="spacing" textLength="83.1729" x="861.5952" y="175.8467">Maratonista</text><line style="stroke:#181818;stroke-width:0.5;" x1="658.54" x2="1115.3232" y1="187" y2="187"/><rect fill="none" height="6" style="stroke:#C82930;stroke-width:1.0;" width="6" x="665.54" y="197.6484"/><text fill="#000000" font-family="sans-serif" font-size="14" lengthAdjust="spacing" textLength="158.5117" x="677.54" y="203.9951">distanciaPreferida : int</text><line style="stroke:#181818;stroke-width:0.5;" x1="658.54" x2="1115.3232" y1="211.2969" y2="211.2969"/><ellipse cx="668.54" cy="224.9453" fill="#84BE84" rx="3" ry="3" style="stroke:#038048;stroke-width:1.0;"/><text fill="#000000" font-family="sans-serif" font-size="14" lengthAdjust="spacing" textLength="432.7832" x="677.54" y="228.292">__construct(nome : String, idade : int, distanciaPreferida : int)</text><ellipse cx="668.54" cy="241.2422" fill="#84BE84" rx="3" ry="3" style="stroke:#038048;stroke-width:1.0;"/><text fill="#000000" font-family="sans-serif" font-size="14" lengthAdjust="spacing" textLength="128.8574" x="677.54" y="244.5889">competir() : String</text><ellipse cx="668.54" cy="257.5391" fill="#84BE84" rx="3" ry="3" style="stroke:#038048;stroke-width:1.0;"/><text fill="#000000" font-family="sans-serif" font-size="14" lengthAdjust="spacing" textLength="135.8369" x="677.54" y="260.8857">descrever() : String</text></g><!--class Competicao--><g id="elem_Competicao"><rect codeLine="44" fill="#F1F1F1" height="96.8906" id="Competicao" rx="2.5" ry="2.5" style="stroke:#181818;stroke-width:0.5;" width="239.1719" x="7" y="165.15"/><ellipse cx="80.4863" cy="181.15" fill="#ADD1B2" rx="11" ry="11" style="stroke:#181818;stroke-width:1.0;"/><path d="M83.4551,186.7906 Q82.877,187.0875 82.2363,187.2281 Q81.5957,187.3844 80.8926,187.3844 Q78.3926,187.3844 77.0645,185.7438 Q75.752,184.0875 75.752,180.9625 Q75.752,177.8375 77.0645,176.1813 Q78.3926,174.525 80.8926,174.525 Q81.5957,174.525 82.2363,174.6813 Q82.8926,174.8375 83.4551,175.1344 L83.4551,177.8531 Q82.8301,177.275 82.2363,177.0094 Q81.6426,176.7281 81.0176,176.7281 Q79.6738,176.7281 78.9863,177.8063 Q78.2988,178.8688 78.2988,180.9625 Q78.2988,183.0563 78.9863,184.1344 Q79.6738,185.1969 81.0176,185.1969 Q81.6426,185.1969 82.2363,184.9313 Q82.8301,184.65 83.4551,184.0719 L83.4551,186.7906 Z " fill="#000000"/><text fill="#000000" font-family="sans-serif" font-size="14" lengthAdjust="spacing" textLength="83.6992" x="100.9863" y="185.9967">Competicao</text><line style="stroke:#181818;stroke-width:0.5;" x1="8" x2="245.1719" y1="197.15" y2="197.15"/><rect fill="none" height="6" style="stroke:#C82930;stroke-width:1.0;" width="6" x="15" y="207.7984"/><text fill="#000000" font-family="sans-serif" font-size="14" lengthAdjust="spacing" textLength="151.1221" x="27" y="214.1451">atletas : List&lt;Atleta&gt;</text><line style="stroke:#181818;stroke-width:0.5;" x1="8" x2="245.1719" y1="221.4469" y2="221.4469"/><ellipse cx="18" cy="235.0953" fill="#84BE84" rx="3" ry="3" style="stroke:#038048;stroke-width:1.0;"/><text fill="#000000" font-family="sans-serif" font-size="14" lengthAdjust="spacing" textLength="213.1719" x="27" y="238.442">adicionarAtleta(atleta : Atleta)</text><ellipse cx="18" cy="251.3922" fill="#84BE84" rx="3" ry="3" style="stroke:#038048;stroke-width:1.0;"/><text fill="#000000" font-family="sans-serif" font-size="14" lengthAdjust="spacing" textLength="96.7422" x="27" y="254.7389">iniciar() : void</text></g><!--reverse link Pessoa to Corredor--><g id="link_Pessoa_Corredor"><path codeLine="50" d="M615.9693,357.0998 C636.2493,357.2798 639.47,357.32 660.8,357.52 " fill="none" id="Pessoa-backto-Corredor" style="stroke:#181818;stroke-width:1.0;"/><polygon fill="none" points="597.97,356.94,615.916,363.0995,616.0225,351.1,597.97,356.94" style="stroke:#181818;stroke-width:1.0;"/></g><!--reverse link Pessoa to Nadador--><g id="link_Pessoa_Nadador"><path codeLine="51" d="M614.7529,418.1962 C634.7329,425.6562 638.17,426.77 657.54,433.6 C673.56,439.24 690.27,444.96 707.04,450.59 " fill="none" id="Pessoa-backto-Nadador" style="stroke:#181818;stroke-width:1.0;"/><polygon fill="none" points="597.89,411.9,612.6542,423.8171,616.8516,412.5752,597.89,411.9" style="stroke:#181818;stroke-width:1.0;"/></g><!--reverse link Pessoa to Ciclista--><g id="link_Pessoa_Ciclista"><path codeLine="52" d="M592.0518,270.5049 C598.8118,264.5349 591.72,270.17 597.54,263.6 C638.65,217.15 610.91,178.49 657.54,137.6 C664.59,131.41 672.17,125.75 680.12,120.55 " fill="none" id="Pessoa-backto-Ciclista" style="stroke:#181818;stroke-width:1.0;"/><polygon fill="none" points="578.56,282.42,596.0235,275.0022,588.0801,266.0076,578.56,282.42" style="stroke:#181818;stroke-width:1.0;"/></g><!--reverse link Pessoa to Maratonista--><g id="link_Pessoa_Maratonista"><path codeLine="53" d="M614.8946,299.9035 C634.9246,293.1035 638.21,292.03 657.54,285.6 C674.15,280.07 691.46,274.36 708.79,268.68 " fill="none" id="Pessoa-backto-Maratonista" style="stroke:#181818;stroke-width:1.0;"/><polygon fill="none" points="597.85,305.69,616.8234,305.585,612.9657,294.222,597.85,305.69" style="stroke:#181818;stroke-width:1.0;"/></g><!--reverse link Atleta to Corredor--><g id="link_Atleta_Corredor"><path codeLine="54" d="M546.453,247.0813 C584.823,260.7013 615.07,271.25 657.54,285.6 C674.03,291.17 691.21,296.89 708.43,302.56 " fill="none" id="Atleta-backto-Corredor" style="stroke:#181818;stroke-width:1.0;stroke-dasharray:7.0,7.0;"/><polygon fill="none" points="529.49,241.06,544.4459,252.7356,548.4601,241.4269,529.49,241.06" style="stroke:#181818;stroke-width:1.0;"/></g><!--reverse link Atleta to Nadador--><g id="link_Atleta_Nadador"><path codeLine="55" d="M546.591,232.9615 C570.951,240.6715 579.16,247.18 597.54,265.6 C653.55,321.72 600.65,378.37 657.54,433.6 C667.26,443.03 678.2,451.26 689.88,458.45 " fill="none" id="Atleta-backto-Nadador" style="stroke:#181818;stroke-width:1.0;stroke-dasharray:7.0,7.0;"/><polygon fill="none" points="529.43,227.53,544.7805,238.6818,548.4015,227.2412,529.43,227.53" style="stroke:#181818;stroke-width:1.0;"/></g><!--reverse link Atleta to Ciclista--><g id="link_Atleta_Ciclista"><path codeLine="56" d="M546.2134,177.9719 C584.5534,163.5219 614.93,152.4 657.54,137.6 C673.69,131.99 690.52,126.28 707.4,120.64 " fill="none" id="Atleta-backto-Ciclista" style="stroke:#181818;stroke-width:1.0;stroke-dasharray:7.0,7.0;"/><polygon fill="none" points="529.37,184.32,548.3295,183.5863,544.0974,172.3574,529.37,184.32" style="stroke:#181818;stroke-width:1.0;"/></g><!--reverse link Atleta to Maratonista--><g id="link_Atleta_Maratonista"><path codeLine="57" d="M547.7798,213.1555 C583.9998,212.9855 611.3,212.86 657.33,212.65 " fill="none" id="Atleta-backto-Maratonista" style="stroke:#181818;stroke-width:1.0;stroke-dasharray:7.0,7.0;"/><polygon fill="none" points="529.78,213.24,547.808,219.1555,547.7516,207.1556,529.78,213.24" style="stroke:#181818;stroke-width:1.0;"/></g><!--reverse link Competicao to Atleta--><g id="link_Competicao_Atleta"><path codeLine="58" d="M258.58,213.6 C301.25,213.6 336.19,213.6 374.3,213.6 " fill="none" id="Competicao-backto-Atleta" style="stroke:#181818;stroke-width:1.0;"/><polygon fill="none" points="246.58,213.6,252.58,217.6,258.58,213.6,252.58,209.6,246.58,213.6" style="stroke:#181818;stroke-width:1.0;"/></g><!--SRC=[fPJ1Ri8m38RlUOeSGQCym8GcRPmcCOIq1q1UOfYb4gF4upBsxdD92-a44eFUylVFxq-ktHfNOeLjfFMdM4yHdH07OoW8nXKujCzIeu3zDbQV1yURBGh5mT0-sdU95DRcnnZuI1B1YNKrf6GNc19tTwh06pov3n9vy8scPNBkSkauQCQNaq7FFxA5TvZDQvIvUag6Jdzjp8SNnsYFoKNSuL_cZ3hb6D5px60nRT4Hr5tLClywo94zdp6ytC4hEEUWOIMcKCqty_KktmSs9LTJEav89RJb5tAgDcDp6-3vZFiuto22S2XHVNC8-gKM4LSO5U7_8pcobrBkR6k-ve0xMZWiObBlJ2jEybu-vIpmsYqE4BCwo5wrvdEBGa5TaEljc7nJhLtLoRwgZhlG4zl1wnlRRzuJYmQRzgSnsO_7fzHIx59xnYwr5ClKeYUi1RFj5m00]--></g></svg>